<?xml version="1.0" encoding="UTF-8"?>
<svg data-bbox="323.137 328 3444.86 3444.86" height="4096" width="4096" xmlns="http://www.w3.org/2000/svg" data-type="ugc">
    <g transform="matrix(34.4 0 0 34.4 328 328)">
        <defs>
            <linearGradient y2="0" x2="100" y1="100" x1="0" gradientUnits="userSpaceOnUse" id="5b502eb4-ac44-42a1-be1c-45d2923fe3d1">
                <stop offset="0" stop-color="#9013fe"/>
                <stop offset="1" stop-color="#bd10e0"/>
            </linearGradient>
        </defs>
        <path d="M24 0h76v76c0 13.255-10.745 24-24 24H0V24C0 10.745 10.745 0 24 0z" fill="url(#5b502eb4-ac44-42a1-be1c-45d2923fe3d1)" transform="rotate(.081)"/>
        <path d="M18.73 69.817c.891.934 1.67 1.626 2.337 2.068.667.446 1.513.912 2.534 1.404.267.133.548.267.836.4.288.133.61.288.969.467 2-.046 3.882-.38 5.637-1a24.12 24.12 0 0 0 4.973-2.436 40.27 40.27 0 0 0 4.472-3.338 132.594 132.594 0 0 0 4.202-3.77l.803-.8 1.4-1.271.934-.867.667 1.27 1.134 2.068c.18.312.348.61.502.902.154.288.302.59.435.899 1.067 2.046 2.155 3.906 3.268 5.573a10.51 10.51 0 0 0 4.405 3.77c.267-.22.569-.4.902-.533.334-.134.744-.2 1.236-.2.442 0 .975.066 1.6.2a25.044 25.044 0 0 0 5.908-4.904 42.302 42.302 0 0 0 4.636-6.374 68.148 68.148 0 0 0 3.77-7.308 336.832 336.832 0 0 0 3.303-7.708 720.049 720.049 0 0 1 2.538-5.939 84.395 84.395 0 0 1 2.734-5.738c-.176-1.605-.456-2.995-.832-4.174-.379-1.18-.891-2.225-1.537-3.134a14 14 0 0 0-2.268-2.503c-.867-.758-1.902-1.513-3.103-2.27-.533.712-1.08 1.59-1.635 2.635a66.075 66.075 0 0 0-1.703 3.471 86.53 86.53 0 0 0-1.702 4.005c-.555 1.4-1.099 2.812-1.632 4.237a302.82 302.82 0 0 1-2.271 5.707 80.319 80.319 0 0 1-2.303 5.139c-.779 1.58-1.58 2.98-2.4 4.201-.825 1.225-1.682 2.17-2.57 2.84l-3.204 2.467a3.952 3.952 0 0 1-.636-1.435 47.896 47.896 0 0 1-.298-1.502 9.472 9.472 0 0 1-.133-1.601c0-.712.01-1.267.031-1.667.021-.4.077-.892.169-1.47a40.18 40.18 0 0 1 .466-2.402 816.91 816.91 0 0 1 1-4.538c.134-.667.278-1.355.436-2.068.154-.712.298-1.414.432-2.102l.368-1.902c.113-.58.19-1.046.232-1.401a7.683 7.683 0 0 0-.765-1.337c-.292-.4-.614-.843-.969-1.334-.267-.355-.544-.723-.835-1.102a17.81 17.81 0 0 1-.899-1.299 5.863 5.863 0 0 1-2.102-1.137 23.473 23.473 0 0 1-1.703-1.534c-.712.625-1.491 1.502-2.334 2.636a87.77 87.77 0 0 0-2.604 3.703 94.557 94.557 0 0 0-2.636 4.205 230.804 230.804 0 0 1-2.503 4.138c-.891 1.513-1.657 2.815-2.303 3.903a74.748 74.748 0 0 1-1.867 3.005c-.6.913-1.256 1.79-1.969 2.636-.712.846-1.58 1.78-2.604 2.801a34.049 34.049 0 0 1-2.335 2.138 23.86 23.86 0 0 1-2.169 1.667c-.779.533-1.48.891-2.102 1.067.22-1.646.456-3.16.702-4.535.242-1.38.477-2.559.698-3.538.267-1.158.534-2.18.8-3.071.313-1.113.738-2.436 1.271-3.97s1.078-3.128 1.632-4.774a240.963 240.963 0 0 0 1.604-4.903 43.751 43.751 0 0 0 1.17-4.437 19.622 19.622 0 0 1-2.538-2.17c-.713-.733-1.447-1.635-2.201-2.702a4.1 4.1 0 0 1-.87-.435 3.4 3.4 0 0 1-.868-.835c-.979.179-1.888.737-2.734 1.67-.846.934-1.636 2.057-2.37 3.37a33.68 33.68 0 0 0-2.003 4.303 170.386 170.386 0 0 0-1.633 4.405c-.537 1.559-1.06 3.426-1.569 5.606a286.935 286.935 0 0 0-1.435 6.44 264.05 264.05 0 0 0-1.169 5.841 410.75 410.75 0 0 0-.698 3.802 23.8 23.8 0 0 0 1.133 2.937c.4.846.867 1.801 1.4 2.872.222.354.447.754.668 1.2.224.446.445.913.667 1.4Z" fill="#ffffff"/>
    </g>
</svg>
